<?xml version="1.0" encoding="utf-8"?>
<!-- Generator: Adobe Illustrator 21.1.0, SVG Export Plug-In . SVG Version: 6.00 Build 0)  -->
<svg version="1.1" id="Layer_1" xmlns="http://www.w3.org/2000/svg" xmlns:xlink="http://www.w3.org/1999/xlink" x="0px" y="0px"
	 viewBox="0 0 183 39" style="enable-background:new 0 0 183 39;" xml:space="preserve">
<style type="text/css">
	.st0{fill:#E6E6E6;}
	.st1{fill:#FF404C;}
</style>
<g>
	<path class="st0" d="M8,34.6c-0.9,0-1.4-0.5-1.2-1.4l4.7-26.9c0.2-0.9,0.8-1.4,1.7-1.4h5.8c5.3,0,7.3,2.1,6.5,6.5L22.7,28
		c-0.8,4.4-3.5,6.6-8.8,6.6H8z M14.5,30.5c1.8,0,2.7-1,3-2.5l2.9-16.6c0.2-1.5-0.2-2.5-2.1-2.5h-0.6c-0.8,0-1.6,0.6-1.7,1.4
		l-3.2,18.2C12.6,29.6,13.5,30.5,14.5,30.5L14.5,30.5z"/>
	<path class="st0" d="M30.3,33.1c-0.2,0.9-0.7,1.4-1.6,1.4h-2.3c-0.9,0-1.4-0.5-1.2-1.4l4.7-26.9c0.2-0.9,0.8-1.4,1.7-1.4h2.3
		c0.9,0,1.4,0.5,1.2,1.4L30.3,33.1z"/>
	<path class="st0" d="M49.7,19c0.9,0,1.4,0.5,1.2,1.4l-1.4,8c-0.8,4.3-3.5,6.4-8.7,6.4c-5.2,0-7.2-2.1-6.4-6.4L37.5,11
		c0.7-4.3,3.5-6.4,8.6-6.4s7.2,2.1,6.4,6.4l-0.5,2.7c-0.1,0.9-0.7,1.4-1.6,1.4h-2.3c-0.9,0-1.4-0.5-1.2-1.4l0.5-2.7
		c0.2-1.4-0.2-2.3-1.9-2.3S43,9.6,42.7,11l-3,17.4c-0.2,1.4,0.2,2.3,1.9,2.3c1.7,0,2.5-0.9,2.8-2.3l0.9-5.4h-1
		c-0.9,0-1.3-0.5-1.2-1.4l0.2-1.2c0.2-0.9,0.7-1.4,1.6-1.4H49.7z"/>
	<path class="st0" d="M57.2,33.1c-0.2,0.9-0.7,1.4-1.6,1.4h-2.3c-0.9,0-1.4-0.5-1.2-1.4l4.7-26.9c0.2-0.9,0.8-1.4,1.7-1.4h2.3
		c0.9,0,1.4,0.5,1.2,1.4L57.2,33.1z"/>
	<path class="st0" d="M76.8,8.8c-1.7,0-3.2,1.2-3.5,2.9l-3.8,21.4c-0.2,0.9-0.7,1.4-1.6,1.4h-2.3c-0.9,0-1.4-0.5-1.2-1.4L68,13
		c0.4-2.2-1.3-4.1-3.5-4.1l0,0c-0.9,0-1.3-0.5-1.1-1.4l0.2-1.2c0.2-0.9,0.8-1.4,1.7-1.4h13.5c0.9,0,1.4,0.5,1.2,1.4l-0.2,1.2
		c-0.2,0.9-0.8,1.4-1.7,1.4H76.8z"/>
	<path class="st0" d="M85.1,33.3l0.1-2.7c0-1-0.8-1.9-1.8-1.9h-2c-0.8,0-1.5,0.5-1.7,1.3l-1,3.3c-0.2,0.9-0.9,1.3-1.6,1.3h-2.3
		c-1,0-1.4-0.7-1.1-1.7l8.8-26.7c0.3-1,0.9-1.4,1.7-1.4h5.3c0.8,0,1.2,0.4,1.2,1.4l-0.6,26.7c0,1-0.6,1.7-1.6,1.7h-2.1
		C85.6,34.6,85,34.2,85.1,33.3z M83.7,24.7L83.7,24.7c1,0,1.8-0.8,1.8-1.7l0.2-4.6l0.7-9.9h-0.3l-2.8,9.9l-1.2,4
		C81.7,23.5,82.5,24.7,83.7,24.7z"/>
	<path class="st0" d="M132.3,33.3l0.1-2.7c0-1-0.8-1.9-1.8-1.9h-2c-0.8,0-1.5,0.5-1.7,1.3l-1,3.3c-0.2,0.9-0.9,1.3-1.6,1.3H122
		c-1,0-1.4-0.7-1.1-1.7l8.8-26.7c0.3-1,0.9-1.4,1.7-1.4h5.3c0.8,0,1.2,0.4,1.2,1.4l-0.6,26.7c0,1-0.6,1.7-1.6,1.7h-2.1
		C132.9,34.6,132.3,34.2,132.3,33.3z M131,24.7L131,24.7c1,0,1.8-0.8,1.8-1.7l0.2-4.6l0.7-9.9h-0.3l-2.8,9.9l-1.2,4
		C128.9,23.5,129.8,24.7,131,24.7z"/>
	<path class="st0" d="M149.4,16l3.9,4.2c2.2,2.3,2.4,4.2,1.7,8.2c-0.8,4.3-3.5,6.4-8.6,6.4c-5.2,0-7.2-2.1-6.4-6.4l0.5-3.2
		c0.2-0.9,0.8-1.4,1.7-1.4h2.3c0.9,0,1.4,0.5,1.2,1.4l-0.6,3.2c-0.2,1.4,0.2,2.3,1.9,2.3s2.5-0.9,2.8-2.3c0.4-2.3,0.3-3.5-1.2-5.1
		l-3.9-4.2c-2.2-2.3-2.4-4.2-1.7-8.2c0.8-4.3,3.5-6.4,8.7-6.4c5.2,0,7.1,2.1,6.4,6.4l-0.6,3.2c-0.2,0.9-0.8,1.4-1.7,1.4h-2.3
		c-0.9,0-1.3-0.5-1.2-1.4l0.6-3.2c0.3-1.4-0.2-2.3-1.9-2.3s-2.5,0.9-2.7,2.3C147.8,13.3,147.9,14.4,149.4,16z"/>
	<path class="st0" d="M167.8,17.7L167.8,17.7c1.1,0,2.1-0.8,2.3-1.9l1.7-9.6c0.2-0.9,0.8-1.4,1.7-1.4h2.3c0.9,0,1.4,0.5,1.2,1.4
		l-4.8,26.9c-0.2,0.9-0.7,1.4-1.6,1.4h-2.3c-0.9,0-1.4-0.5-1.2-1.4l1.5-8.7c0.2-1.4-0.8-2.7-2.3-2.7l0,0c-1.1,0-2.1,0.8-2.3,1.9
		l-1.7,9.5c-0.2,0.9-0.7,1.4-1.6,1.4h-2.3c-0.9,0-1.4-0.5-1.2-1.4l4.7-26.9c0.2-0.9,0.8-1.4,1.7-1.4h2.3c0.9,0,1.4,0.5,1.2,1.4
		l-1.6,8.8C165.3,16.4,166.4,17.7,167.8,17.7z"/>
	<circle class="st0" cx="106.5" cy="28.5" r="1.5"/>
	<path class="st0" d="M116.1,4.8h-5.8c-0.9,0-1.5,0.5-1.7,1.4l-1.4,7.8h5.2l0.7-3.7c0.1-0.8,0.9-1.4,1.7-1.4h0.6
		c1.8,0,2.3,1,2.1,2.5L115,26c-0.3,1.5,0,5-3.7,5h-5.1l-0.1,0.5c-0.1,0.5-0.6,3.1-0.6,3.1h5.4c5.3,0,8.1-2.1,8.8-6.6l2.9-16.6
		C123.4,6.9,121.4,4.8,116.1,4.8z"/>
	<path class="st0" d="M105.2,31H104c-3.3,0-6,0-5-5l3.1-19.8c0.2-0.9-0.3-1.4-1.2-1.4h-2.3c-0.9,0-1.5,0.5-1.7,1.4l-4.7,26.9
		c-0.2,0.9,0.3,1.4,1.2,1.4h11.2L105.2,31z"/>
</g>
<g>
	<path class="st1" d="M9,34.6c-0.9,0-1.4-0.5-1.2-1.4l4.7-26.9c0.2-0.9,0.8-1.4,1.7-1.4h5.8c5.3,0,7.3,2.1,6.5,6.5L23.7,28
		c-0.8,4.4-3.5,6.6-8.8,6.6H9z M15.5,30.5c1.8,0,2.7-1,3-2.5l2.9-16.6c0.2-1.5-0.2-2.5-2.1-2.5h-0.6c-0.8,0-1.6,0.6-1.7,1.4
		l-3.2,18.2C13.6,29.6,14.5,30.5,15.5,30.5L15.5,30.5z"/>
	<path class="st1" d="M31.3,33.1c-0.2,0.9-0.7,1.4-1.6,1.4h-2.3c-0.9,0-1.4-0.5-1.2-1.4l4.7-26.9c0.2-0.9,0.8-1.4,1.7-1.4h2.3
		c0.9,0,1.4,0.5,1.2,1.4L31.3,33.1z"/>
	<path class="st1" d="M50.7,19c0.9,0,1.4,0.5,1.2,1.4l-1.4,8c-0.8,4.3-3.5,6.4-8.7,6.4c-5.2,0-7.2-2.1-6.4-6.4L38.5,11
		c0.7-4.3,3.5-6.4,8.6-6.4s7.2,2.1,6.4,6.4l-0.5,2.7c-0.1,0.9-0.7,1.4-1.6,1.4h-2.3c-0.9,0-1.4-0.5-1.2-1.4l0.5-2.7
		c0.2-1.4-0.2-2.3-1.9-2.3S44,9.6,43.7,11l-3,17.4c-0.2,1.4,0.2,2.3,1.9,2.3c1.7,0,2.5-0.9,2.8-2.3l0.9-5.4h-1
		c-0.9,0-1.3-0.5-1.2-1.4l0.2-1.2c0.2-0.9,0.7-1.4,1.6-1.4H50.7z"/>
	<path class="st1" d="M58.2,33.1c-0.2,0.9-0.7,1.4-1.6,1.4h-2.3c-0.9,0-1.4-0.5-1.2-1.4l4.7-26.9c0.2-0.9,0.8-1.4,1.7-1.4h2.3
		c0.9,0,1.4,0.5,1.2,1.4L58.2,33.1z"/>
	<path class="st1" d="M77.8,8.8c-1.7,0-3.2,1.2-3.5,2.9l-3.8,21.4c-0.2,0.9-0.7,1.4-1.6,1.4h-2.3c-0.9,0-1.4-0.5-1.2-1.4L69,13
		c0.4-2.2-1.3-4.1-3.5-4.1l0,0c-0.9,0-1.3-0.5-1.1-1.4l0.2-1.2c0.2-0.9,0.8-1.4,1.7-1.4h13.5c0.9,0,1.4,0.5,1.2,1.4l-0.2,1.2
		c-0.2,0.9-0.8,1.4-1.7,1.4H77.8z"/>
	<path class="st1" d="M86.1,33.3l0.1-2.7c0-1-0.8-1.9-1.8-1.9h-2c-0.8,0-1.5,0.5-1.7,1.3l-1,3.3c-0.2,0.9-0.9,1.3-1.6,1.3h-2.3
		c-1,0-1.4-0.7-1.1-1.7l8.8-26.7c0.3-1,0.9-1.4,1.7-1.4h5.3c0.8,0,1.2,0.4,1.2,1.4l-0.6,26.7c0,1-0.6,1.7-1.6,1.7h-2.1
		C86.6,34.6,86,34.2,86.1,33.3z M84.7,24.7L84.7,24.7c1,0,1.8-0.8,1.8-1.7l0.2-4.6l0.7-9.9h-0.3l-2.8,9.9l-1.2,4
		C82.7,23.5,83.5,24.7,84.7,24.7z"/>
	<path class="st1" d="M133.3,33.3l0.1-2.7c0-1-0.8-1.9-1.8-1.9h-2c-0.8,0-1.5,0.5-1.7,1.3l-1,3.3c-0.2,0.9-0.9,1.3-1.6,1.3H123
		c-1,0-1.4-0.7-1.1-1.7l8.8-26.7c0.3-1,0.9-1.4,1.7-1.4h5.3c0.8,0,1.2,0.4,1.2,1.4l-0.6,26.7c0,1-0.6,1.7-1.6,1.7h-2.1
		C133.9,34.6,133.3,34.2,133.3,33.3z M132,24.7L132,24.7c1,0,1.8-0.8,1.8-1.7l0.2-4.6l0.7-9.9h-0.3l-2.8,9.9l-1.2,4
		C129.9,23.5,130.8,24.7,132,24.7z"/>
	<path class="st1" d="M150.4,16l3.9,4.2c2.2,2.3,2.4,4.2,1.7,8.2c-0.8,4.3-3.5,6.4-8.6,6.4c-5.2,0-7.2-2.1-6.4-6.4l0.5-3.2
		c0.2-0.9,0.8-1.4,1.7-1.4h2.3c0.9,0,1.4,0.5,1.2,1.4l-0.6,3.2c-0.2,1.4,0.2,2.3,1.9,2.3s2.5-0.9,2.8-2.3c0.4-2.3,0.3-3.5-1.2-5.1
		l-3.9-4.2c-2.2-2.3-2.4-4.2-1.7-8.2c0.8-4.3,3.5-6.4,8.7-6.4c5.2,0,7.1,2.1,6.4,6.4l-0.6,3.2c-0.2,0.9-0.8,1.4-1.7,1.4h-2.3
		c-0.9,0-1.3-0.5-1.2-1.4l0.6-3.2c0.3-1.4-0.2-2.3-1.9-2.3s-2.5,0.9-2.7,2.3C148.8,13.3,148.9,14.4,150.4,16z"/>
	<path class="st1" d="M168.8,17.7L168.8,17.7c1.1,0,2.1-0.8,2.3-1.9l1.7-9.6c0.2-0.9,0.8-1.4,1.7-1.4h2.3c0.9,0,1.4,0.5,1.2,1.4
		l-4.8,26.9c-0.2,0.9-0.7,1.4-1.6,1.4h-2.3c-0.9,0-1.4-0.5-1.2-1.4l1.5-8.7c0.2-1.4-0.8-2.7-2.3-2.7l0,0c-1.1,0-2.1,0.8-2.3,1.9
		l-1.7,9.5c-0.2,0.9-0.7,1.4-1.6,1.4h-2.3c-0.9,0-1.4-0.5-1.2-1.4l4.7-26.9c0.2-0.9,0.8-1.4,1.7-1.4h2.3c0.9,0,1.4,0.5,1.2,1.4
		l-1.6,8.8C166.3,16.4,167.4,17.7,168.8,17.7z"/>
	<circle class="st1" cx="107.5" cy="28.5" r="1.5"/>
	<path class="st1" d="M117.1,4.8h-5.8c-0.9,0-1.5,0.5-1.7,1.4l-1.4,7.8h5.2l0.7-3.7c0.1-0.8,0.9-1.4,1.7-1.4h0.6
		c1.8,0,2.3,1,2.1,2.5L116,26c-0.3,1.5,0,5-3.7,5h-5.1l-0.1,0.5c-0.1,0.5-0.6,3.1-0.6,3.1h5.4c5.3,0,8.1-2.1,8.8-6.6l2.9-16.6
		C124.4,6.9,122.4,4.8,117.1,4.8z"/>
	<path class="st1" d="M106.2,31H105c-3.3,0-6,0-5-5l3.1-19.8c0.2-0.9-0.3-1.4-1.2-1.4h-2.3c-0.9,0-1.5,0.5-1.7,1.4l-4.7,26.9
		c-0.2,0.9,0.3,1.4,1.2,1.4h11.2L106.2,31z"/>
</g>
</svg>
